<svg xmlns="http://www.w3.org/2000/svg" width="845" height="106" viewBox="0 0 845 106">
  <g id="Group_1" data-name="Group 1" transform="translate(-25 4)">
    <text id="Tut_rials" data-name="Tut  rials" transform="translate(25 -4)" fill="#fff" font-size="80" font-family="Segoe UI Variable Small"><tspan x="0" y="86" xml:space="preserve">Tut  rials</tspan></text>
    <path id="Icon_ionic-ios-football" data-name="Icon ionic-ios-football" d="M29.339,3.375C15,3.375,3.375,15.46,3.375,30.375c0,14.889,11.646,27,25.964,27,14.343,0,25.964-12.085,25.964-27C55.3,15.486,43.656,3.375,29.339,3.375ZM45.229,13.85a23.019,23.019,0,0,1,2.821,3.57.491.491,0,0,1,.05.454l-1.8,5.361a.509.509,0,0,1-.262.3l-7.178,3.4a.487.487,0,0,1-.524-.078l-7.065-6.179a.542.542,0,0,1-.175-.4V12.085a.524.524,0,0,1,.225-.428l4.793-3.388a.476.476,0,0,1,.437-.065A22.64,22.64,0,0,1,45.229,13.85ZM36,52.481a.468.468,0,0,1-.325.312,21.637,21.637,0,0,1-6.341.935A22.013,22.013,0,0,1,23,52.793a.526.526,0,0,1-.325-.312L20.626,46.9a.565.565,0,0,1,.025-.428l2.784-5.491a.5.5,0,0,1,.437-.273H34.794a.488.488,0,0,1,.437.273l2.784,5.491a.565.565,0,0,1,.025.428Zm-8.413-40.37V20.3a.542.542,0,0,1-.175.4L20.339,26.87a.487.487,0,0,1-.524.078l-7.178-3.4a.505.505,0,0,1-.262-.3l-1.8-5.348a.526.526,0,0,1,.05-.454,23.019,23.019,0,0,1,2.821-3.57,22.232,22.232,0,0,1,8.688-5.621.476.476,0,0,1,.437.065l4.793,3.388A.432.432,0,0,1,27.591,12.111ZM7.082,31.426l4.506-4.05a.483.483,0,0,1,.537-.078l6.541,3.089a.516.516,0,0,1,.275.35l1.822,7.438a.643.643,0,0,1-.037.376l-2.9,5.7a.483.483,0,0,1-.449.273l-5.742-.078a.514.514,0,0,1-.4-.208A23.777,23.777,0,0,1,6.908,31.855.579.579,0,0,1,7.082,31.426ZM40.835,44.238l-2.883-5.686a.493.493,0,0,1-.037-.376l1.822-7.438a.516.516,0,0,1,.275-.35L46.552,27.3a.508.508,0,0,1,.537.078l4.506,4.05a.535.535,0,0,1,.175.428,23.708,23.708,0,0,1-4.331,12.384.479.479,0,0,1-.4.208l-5.755.078A.545.545,0,0,1,40.835,44.238Z" transform="translate(136.625 30.625)" fill="red"/>
  </g>
</svg>
